<svg width="117" height="16" viewBox="0 0 117 16" fill="none" xmlns="http://www.w3.org/2000/svg">
<path d="M41.4047 0.347866L48.1982 15.7757H43.6777L42.467 12.7694L41.2072 9.53976L39.2309 4.59549L37.2547 9.53976L35.9948 12.7694L34.7841 15.7757H30.3373L37.1309 0.347866H41.4047ZM28.1144 8.99325C28.6333 8.1483 28.9045 7.17977 28.9045 6.06202C28.9045 4.94427 28.6078 3.90068 28.0643 3.03101C27.4963 2.16135 26.7053 1.51596 25.693 1.0436C24.6553 0.571232 23.4446 0.347866 22.0864 0.347866H15.0708V3.77618H21.8152C22.68 3.77618 23.3718 3.97483 23.8406 4.37212C24.2857 4.76942 24.5324 5.34066 24.5324 6.03639C24.5324 6.73212 24.2857 7.30335 23.8406 7.70065C23.3709 8.09795 22.7045 8.27188 21.8152 8.27188H15.0708V15.7501H19.4184V11.6508H21.7897L24.5816 15.7501H29.2259L25.8915 10.9312C26.83 10.4589 27.571 9.8382 28.1144 8.99325ZM117 0.347866H112.751L112.726 4.77034L116.975 9.93798L117 0.347866ZM53.9531 4.14876C54.6203 3.80089 55.3613 3.60224 56.2015 3.60224C57.6097 3.60224 58.8204 4.22291 59.8081 5.41572L62.5754 2.90651C61.8344 1.98741 60.8959 1.24225 59.7589 0.745165C58.6229 0.248083 57.363 0 55.9548 0C54.3245 0 52.8917 0.347866 51.6073 1.0436C50.3474 1.73933 49.3343 2.68314 48.5933 3.87596C47.8523 5.11821 47.5064 6.48495 47.5064 8.02472C47.5064 9.56448 47.8523 10.9559 48.5933 12.1735C49.3343 13.3663 50.3474 14.3101 51.6073 14.9811C52.8671 15.6769 54.3245 16 55.9548 16C57.363 16 58.5983 15.7519 59.7589 15.2548C60.8704 14.7578 61.8098 14.0373 62.5754 13.0935L59.8081 10.5843C58.7949 11.8018 57.5842 12.3978 56.2015 12.3978C55.3613 12.3978 54.6203 12.2238 53.9531 11.8512C53.2858 11.5034 52.7915 10.9816 52.4465 10.3106C52.1015 9.63955 51.9277 8.86967 51.9277 8C51.9277 7.13034 52.1006 6.36045 52.4465 5.71415C52.7925 5.04314 53.3113 4.52134 53.9531 4.14876ZM0 3.80089H4.71896V15.7757H9.06652V3.80089H13.76V0.347866H0V3.80089ZM102.424 15.7757H106.674L106.698 11.1546L102.449 5.71415L102.424 15.7757ZM90.393 0.347866L83.6241 15.7757H88.0463L89.257 12.7694L90.5168 9.53976L92.4931 4.59549L94.4693 9.53976L95.7292 12.7694L96.9399 15.7757H101.46L94.6669 0.347866H90.393ZM112.751 8.57123L105.982 0.347866H102.4V2.40943L106.649 7.57707L113.418 15.8004H117V14.0117L112.751 8.57123ZM78.3125 15.7757H82.6601V0.347866H78.3125V15.7757ZM63.2672 3.80089H67.9616V15.7757H72.3091V3.80089H77.0026V0.347866H63.2672V3.80089Z" fill="#2563EB"/>
</svg>