<svg width="30" height="28" viewBox="0 0 30 28" fill="none" xmlns="http://www.w3.org/2000/svg">
<path d="M24.3389 17.0957C24.4089 16.9685 24.5902 16.9685 24.6602 17.0957L25.9756 20.7275C26.0442 20.8526 26.1464 20.9568 26.2715 21.0254L29.9053 22.3389C30.0315 22.409 30.0315 22.59 29.9053 22.6602L26.2715 23.9736C26.1464 24.0422 26.0442 24.1464 25.9756 24.2715L24.6602 27.9053C24.5899 28.0313 24.409 28.0315 24.3389 27.9053L23.0254 24.2715C22.9568 24.1464 22.8536 24.0423 22.7285 23.9736L19.0957 22.6602C18.9685 22.5902 18.9685 22.4089 19.0957 22.3389L22.7285 21.0254C22.8535 20.9568 22.9568 20.8526 23.0254 20.7275L24.3389 17.0957ZM22.5 0.5C24.1545 0.500001 25.5 1.8455 25.5 3.5V14H22.5V3.5H3V21.5H15V24.5H3C1.3455 24.5 1.03408e-06 23.1545 0 21.5V3.5C0 1.8455 1.3455 0.5 3 0.5H22.5ZM21 18.5H4.5L9 12.5L10.5 15.5L15 9.5L21 18.5Z" fill="#1474DD"/>
</svg>
